<svg width="24" height="24" viewBox="0 0 24 24" fill="none" xmlns="http://www.w3.org/2000/svg">
<path d="M22.6458 0.0234985L20.6494 21.6476L11.9998 23.9765L3.35011 21.6476L1.35413 0.0234985H22.6458ZM18.6229 4.42042H11.992H5.24367L5.56641 7.03173H11.992H12.353L11.992 7.18197L5.80125 9.76037L6.00656 12.3129L11.992 12.3323L15.2001 12.3424L14.9947 15.7458L11.992 16.5912V16.5886L11.9674 16.5954L9.0675 15.8634L8.89153 13.7507H8.88192H6.19214H6.18267L6.53475 17.8292L11.9921 19.443V19.4401L12.0019 19.443L17.43 17.8585L18.1341 9.76037H11.9921H11.9769L11.9921 9.75381L18.3591 7.03173L18.6229 4.42042Z" fill="black"/>
</svg>
