<svg width="24" height="24" viewBox="0 0 24 24" fill="none" xmlns="http://www.w3.org/2000/svg">
<g clip-path="url(#clip0_15_134)">
<path d="M15.788 18.319C14.761 18.711 13.572 18.938 12.331 18.938C12.186 18.938 12.042 18.935 11.898 18.929L11.918 18.93C11.799 18.935 11.659 18.938 11.518 18.938C10.255 18.938 9.04498 18.711 7.92598 18.297L7.99798 18.32L8.70098 19.493L8.98298 23.246C8.98298 23.4647 9.27231 23.6443 9.85098 23.785C10.438 23.922 11.113 24.001 11.806 24.001C11.853 24.001 11.901 24.001 11.948 24H11.941C11.985 24.001 12.038 24.001 12.09 24.001C12.777 24.001 13.446 23.924 14.088 23.777L14.028 23.789C14.6066 23.6483 14.896 23.4687 14.896 23.25L15.13 19.497L15.788 18.319ZM7.20298 12.319C7.37398 11.748 7.61398 11.249 7.91898 10.799L7.90698 10.818C8.19998 10.363 8.59598 9.997 9.06298 9.747L9.07998 9.739C9.19698 9.686 9.33398 9.655 9.47898 9.655C9.65998 9.655 9.82998 9.704 9.97598 9.788L9.97098 9.785C10.103 9.854 10.213 9.949 10.297 10.064L10.299 10.067C10.369 10.143 10.419 10.239 10.439 10.345L10.44 10.349C10.453 10.386 10.46 10.429 10.46 10.474C10.46 10.54 10.444 10.602 10.415 10.656L10.416 10.654C10.381 10.724 10.31 10.771 10.228 10.772C10.1493 10.772 10.0476 10.6627 9.92298 10.444C9.73498 10.1 9.46831 10.053 9.12298 10.303C8.78698 10.556 8.51698 10.877 8.32998 11.248L8.32298 11.263C8.10798 11.638 7.91798 12.073 7.77598 12.53L7.76298 12.577C7.69598 12.739 7.65798 12.928 7.65798 13.126C7.65798 13.273 7.67898 13.414 7.71898 13.548L7.71598 13.538C7.76398 13.623 7.85298 13.68 7.95598 13.68C8.25298 13.621 8.50498 13.46 8.68098 13.237L8.68298 13.234C8.92198 13.008 9.13098 12.754 9.30698 12.476L9.31698 12.46L9.55098 11.757C9.61364 11.601 9.70764 11.523 9.83298 11.523C9.95831 11.523 10.021 11.609 10.021 11.781C9.99998 12.049 9.93298 12.296 9.82698 12.521L9.83298 12.508C9.73598 12.736 9.63898 13.017 9.56198 13.306L9.55098 13.353L9.17298 14.569C9.13998 14.668 9.09998 14.753 9.05198 14.832L9.05498 14.826C9.02698 14.89 8.96698 14.936 8.89598 14.944C8.89398 14.944 8.88998 14.944 8.88698 14.944C8.83198 14.944 8.78298 14.916 8.75498 14.874C8.73298 14.821 8.71998 14.759 8.71998 14.695C8.71998 14.658 8.72398 14.622 8.73198 14.588L8.73098 14.591C8.83698 14.117 8.95798 13.715 9.10398 13.327L9.08298 13.391L8.75498 13.719C8.50598 13.999 8.16098 14.189 7.77298 14.239L7.76498 14.24C7.75498 14.241 7.74398 14.241 7.73198 14.241C7.60598 14.241 7.48798 14.206 7.38698 14.145L7.38998 14.147L7.76498 17.852C7.79631 18.008 8.20264 18.18 8.98398 18.368C9.83398 18.577 10.81 18.696 11.814 18.696H11.896H11.892H11.97C12.974 18.696 13.95 18.576 14.885 18.351L14.801 18.368C15.5516 18.18 15.958 18.008 16.02 17.852L16.536 13.443L16.442 13.49C16.216 13.742 15.952 13.953 15.657 14.116L15.642 14.124C15.524 14.177 15.386 14.207 15.241 14.207C15.185 14.207 15.13 14.202 15.076 14.194L15.082 14.195C14.892 14.1637 14.797 14.0697 14.797 13.913C14.895 13.578 15.074 13.293 15.312 13.07L15.313 13.069L15.454 12.835C15.61 12.679 15.688 12.5617 15.688 12.483C15.688 12.4043 15.6253 12.373 15.5 12.389C15.353 12.414 15.225 12.481 15.125 12.577C14.975 12.715 14.843 12.869 14.731 13.037L14.725 13.046C14.581 13.255 14.448 13.494 14.336 13.745L14.325 13.773L14.137 14.148L13.677 15.46C13.618 15.55 13.539 15.621 13.446 15.67L13.443 15.672C13.41 15.694 13.369 15.708 13.326 15.708C13.283 15.708 13.242 15.695 13.208 15.672C13.154 15.636 13.12 15.576 13.118 15.508L13.165 15.367C13.287 15.013 13.414 14.719 13.559 14.435L13.54 14.476L13.868 13.773C13.8993 13.6477 13.915 13.6007 13.915 13.632C13.732 13.832 13.514 13.997 13.271 14.119L13.258 14.125C13.158 14.176 13.04 14.206 12.915 14.206C12.87 14.206 12.827 14.202 12.784 14.195L12.789 14.196C12.671 14.171 12.58 14.08 12.555 13.964V13.962L12.508 13.868C12.311 14.069 12.038 14.194 11.735 14.196C11.5316 14.1647 11.4783 13.9303 11.575 13.493C11.401 13.903 11.006 14.187 10.544 14.196C10.527 14.199 10.506 14.2 10.487 14.2C10.325 14.2 10.185 14.103 10.122 13.964L10.121 13.961C10.117 13.916 10.115 13.864 10.115 13.811C10.115 13.471 10.2 13.151 10.351 12.871L10.346 12.882V12.835C10.44 12.6163 10.5493 12.3663 10.674 12.085C10.768 11.897 10.893 11.8343 11.049 11.897H11.096C11.19 11.9597 11.2056 12.0847 11.143 12.272L11.002 12.46C10.892 12.665 10.782 12.912 10.688 13.168L10.674 13.211C10.6113 13.4923 10.6346 13.633 10.744 13.633C10.873 13.629 10.994 13.595 11.1 13.537L11.096 13.539C11.305 13.387 11.472 13.19 11.585 12.962L11.589 12.953C11.696 12.771 11.784 12.56 11.843 12.337L11.847 12.319L11.941 12.079C12.0036 11.923 12.074 11.845 12.152 11.845C12.235 11.846 12.31 11.882 12.363 11.938C12.4256 12.0007 12.4256 12.11 12.363 12.266L12.035 13.016C11.962 13.18 11.912 13.37 11.895 13.569V13.576C11.895 13.7013 12.0043 13.717 12.223 13.623C12.349 13.574 12.457 13.511 12.553 13.433L12.551 13.435C12.5823 13.3097 12.8323 12.6373 13.301 11.418L13.77 10.245C13.813 10.108 13.939 10.01 14.088 10.01H14.099C14.154 10.02 14.201 10.045 14.239 10.081C14.3016 10.1277 14.3173 10.2137 14.286 10.339L13.439 12.365C13.2203 12.9277 13.087 13.2863 13.039 13.441C12.991 13.5957 13.0003 13.6757 13.067 13.681C13.2856 13.681 13.6453 13.4143 14.146 12.881L14.193 12.834L14.334 12.506C14.367 12.344 14.432 12.201 14.523 12.078L14.521 12.081C14.5836 12.0183 14.6306 11.987 14.662 11.987C14.7873 11.987 14.85 12.0403 14.85 12.147V12.154C14.85 12.26 14.833 12.363 14.801 12.458L14.803 12.451L15.037 12.217C15.223 12 15.497 11.863 15.803 11.863C15.822 11.863 15.842 11.864 15.861 11.865H15.858C16.056 11.879 16.211 12.043 16.211 12.243C16.211 12.251 16.211 12.258 16.21 12.266C16.106 12.692 15.892 13.057 15.601 13.344L15.507 13.391C15.449 13.472 15.401 13.565 15.368 13.665L15.366 13.672C15.366 13.7033 15.3973 13.719 15.46 13.719C15.589 13.685 15.7 13.619 15.788 13.531L16.588 12.828L17.291 6.449C16.391 6.776 15.352 6.965 14.269 6.965C14.243 6.965 14.217 6.965 14.19 6.965H14.194C13.521 7.01 12.735 7.035 11.942 7.035C11.149 7.035 10.364 7.009 9.58398 6.959L9.68998 6.964C9.66798 6.964 9.64198 6.964 9.61498 6.964C8.53198 6.964 7.49298 6.775 6.52998 6.428L6.59298 6.448L7.20298 12.319ZM17.382 6.033H17.335C17.335 5.90767 17.0456 5.78267 16.467 5.658C15.81 5.522 15.029 5.422 14.233 5.378L14.191 5.376L14.66 3.456L17.334 0.594C17.428 0.531334 17.35 0.390667 17.1 0.172C17.027 0.0930002 16.931 0.0360002 16.822 0.0130002L16.818 0.0120002C16.724 -0.00333317 16.6613 0.0043335 16.63 0.0350002L13.771 3.028L13.161 5.326L11.942 5.278C11.856 5.277 11.755 5.276 11.653 5.276C10.398 5.276 9.16398 5.362 7.95498 5.528L8.09498 5.512C7.03231 5.668 6.50098 5.84 6.50098 6.028C6.50098 6.34067 7.43898 6.55967 9.31498 6.685C10.101 6.745 11.018 6.779 11.942 6.779C12.866 6.779 13.783 6.745 14.69 6.678L14.569 6.685C16.445 6.561 17.383 6.34233 17.383 6.029L17.382 6.033ZM14.102 6.267C14.102 6.29833 14.0393 6.33767 13.914 6.385C13.79 6.43 13.646 6.456 13.496 6.456C13.486 6.456 13.476 6.456 13.467 6.456C13.459 6.456 13.45 6.456 13.44 6.456C13.29 6.456 13.147 6.43 13.013 6.383L13.022 6.386C12.8966 6.33933 12.834 6.3 12.834 6.268C12.834 6.236 12.881 6.20467 12.975 6.174L12.928 6.221C12.928 6.28367 13.1 6.315 13.444 6.315C13.788 6.315 13.96 6.28367 13.96 6.221L14.007 6.174C14.0676 6.20333 14.098 6.23333 14.098 6.264L14.102 6.267Z" fill="black"/>
</g>
<defs>
<clipPath id="clip0_15_134">
<rect width="24" height="24" fill="white"/>
</clipPath>
</defs>
</svg>
