<svg width="23" height="15" viewBox="0 0 23 15" fill="none" xmlns="http://www.w3.org/2000/svg">
<path d="M6.5483 0.198869H8.7358V10.5114C8.7358 11.4441 8.55114 12.242 8.18182 12.9048C7.81724 13.5677 7.3035 14.0743 6.64062 14.4247C5.97775 14.7704 5.20123 14.9432 4.31108 14.9432C3.49195 14.9432 2.75568 14.794 2.10227 14.4957C1.4536 14.1974 0.939867 13.7642 0.56108 13.196C0.187027 12.6231 0 11.9271 0 11.108H2.1804C2.1804 11.5104 2.27273 11.8584 2.45739 12.152C2.64678 12.4456 2.90483 12.6752 3.23153 12.8409C3.56297 13.0019 3.94176 13.0824 4.3679 13.0824C4.83191 13.0824 5.22491 12.9853 5.54688 12.7912C5.87358 12.5923 6.12216 12.3011 6.29261 11.9176C6.46307 11.5341 6.5483 11.0653 6.5483 10.5114V0.198869ZM19.8633 4.01989C19.7875 3.34754 19.475 2.82671 18.9258 2.45739C18.3765 2.08334 17.6853 1.89631 16.8519 1.89631C16.2553 1.89631 15.7392 1.99101 15.3036 2.1804C14.868 2.36506 14.5295 2.62074 14.288 2.94745C14.0513 3.26942 13.9329 3.63637 13.9329 4.0483C13.9329 4.39394 14.0134 4.69224 14.1744 4.94319C14.3401 5.19413 14.5555 5.40483 14.8207 5.57529C15.0906 5.74101 15.3794 5.88069 15.6871 5.99432C15.9949 6.10322 16.2908 6.19319 16.5749 6.26421L17.9954 6.63353C18.4594 6.74716 18.9353 6.90105 19.4229 7.09518C19.9106 7.2893 20.3628 7.54499 20.7795 7.86222C21.1961 8.17946 21.5323 8.57245 21.788 9.0412C22.0484 9.50995 22.1786 10.071 22.1786 10.7244C22.1786 11.5483 21.9656 12.2798 21.5394 12.919C21.118 13.5582 20.5049 14.0625 19.6999 14.4318C18.8997 14.8011 17.9315 14.9858 16.7951 14.9858C15.7061 14.9858 14.7638 14.813 13.9684 14.4673C13.1729 14.1217 12.5503 13.6316 12.1005 12.9972C11.6507 12.358 11.4021 11.6004 11.3548 10.7244H13.5565C13.5991 11.25 13.7695 11.688 14.0678 12.0384C14.3709 12.384 14.7567 12.6421 15.2255 12.8125C15.699 12.9782 16.2174 13.0611 16.7809 13.0611C17.4012 13.0611 17.9528 12.964 18.4357 12.7699C18.9234 12.571 19.3069 12.2964 19.5863 11.946C19.8656 11.5909 20.0053 11.1766 20.0053 10.7031C20.0053 10.2723 19.8822 9.91951 19.636 9.64489C19.3945 9.37027 19.0655 9.143 18.6488 8.96307C18.2369 8.78315 17.7705 8.62453 17.2496 8.48722L15.5309 8.01847C14.3661 7.70124 13.4428 7.23485 12.761 6.61932C12.0839 6.00379 11.7454 5.1894 11.7454 4.17614C11.7454 3.33807 11.9727 2.60654 12.4272 1.98154C12.8817 1.35654 13.4973 0.871217 14.2738 0.525574C15.0503 0.175195 15.9263 5.00679e-06 16.9016 5.00679e-06C17.8865 5.00679e-06 18.7553 0.172827 19.5082 0.518471C20.2657 0.864115 20.8623 1.33997 21.2979 1.94603C21.7335 2.54735 21.9608 3.23864 21.9798 4.01989H19.8633Z" fill="black"/>
</svg>
